HIERARCHY
ROOT Root
{
  OFFSET 0.0 0.0 0.0
  CHANNELS 6 Xposition Yposition Zposition Zrotation Yrotation Xrotation
  JOINT Hips
  {
    OFFSET 0.0 100.0 0.0
    CHANNELS 6 Xposition Yposition Zposition Zrotation Yrotation Xrotation
    JOINT Spine
    {
      OFFSET -0.013727 5.003763 -0.053727
      CHANNELS 3 Zrotation Yrotation Xrotation
      JOINT Spine1
      {
        OFFSET -0.0 7.125301 -0.029825
        CHANNELS 3 Zrotation Yrotation Xrotation
        JOINT Spine2
        {
          OFFSET -1e-06 7.550063 -0.815971
          CHANNELS 3 Zrotation Yrotation Xrotation
          JOINT Neck
          {
            OFFSET -0.181677 26.311295 -0.553348
            CHANNELS 3 Zrotation Yrotation Xrotation
            JOINT Neck2
            {
              OFFSET -3e-06 7.709397 2.302585
              CHANNELS 3 Zrotation Yrotation Xrotation
              JOINT Head
              {
                OFFSET -5e-06 6.128916 1.953709
                CHANNELS 3 Zrotation Yrotation Xrotation
                JOINT HeadTop_End
                {
                  OFFSET 0.003598 16.065403 -1.835379
                  CHANNELS 3 Zrotation Yrotation Xrotation
                }
                JOINT Jaw
                {
                  OFFSET 0.002637 0.475592 3.094941
                  CHANNELS 3 Zrotation Yrotation Xrotation
                }
                JOINT LeftEye
                {
                  OFFSET 3.206381 5.380205 7.586883
                  CHANNELS 3 Zrotation Yrotation Xrotation
                }
                JOINT RightEye
                {
                  OFFSET -3.22244 5.361869 7.558234
                  CHANNELS 3 Zrotation Yrotation Xrotation
                }
              }
            }
          }
          JOINT LeftShoulder
          {
            OFFSET 1.621652 23.237164 5.113413
            CHANNELS 3 Zrotation Yrotation Xrotation
            JOINT LeftArm
            {
              OFFSET 14.919846 2e-06 -5.502326
              CHANNELS 3 Zrotation Yrotation Xrotation
              JOINT LeftForeArm
              {
                OFFSET 28.739307 0.0 -0.002588
                CHANNELS 3 Zrotation Yrotation Xrotation
                JOINT LeftHand
                {
                  OFFSET 27.093981 -1e-06 0.002609
                  CHANNELS 3 Zrotation Yrotation Xrotation
                  JOINT LeftHandThumb1
                  {
                    OFFSET 2.276482 -1.392045 3.191413
                    CHANNELS 3 Zrotation Yrotation Xrotation
                    JOINT LeftHandThumb2
                    {
                      OFFSET 4.012836 -1.828127 1.641654
                      CHANNELS 3 Zrotation Yrotation Xrotation
                      JOINT LeftHandThumb3
                      {
                        OFFSET 2.798515 0.0 -3e-06
                        CHANNELS 3 Zrotation Yrotation Xrotation
                        JOINT LeftHandThumb4
                        {
                          OFFSET 3.180793 -4e-06 4e-06
                          CHANNELS 3 Zrotation Yrotation Xrotation
                        }
                      }
                    }
                  }
                  JOINT LeftHandIndex1
                  {
                    OFFSET 3.247555 -0.531998 2.296169
                    CHANNELS 3 Zrotation Yrotation Xrotation
                    JOINT LeftHandIndex2
                    {
                      OFFSET 6.364578 0.01206 0.1786
                      CHANNELS 3 Zrotation Yrotation Xrotation
                      JOINT LeftHandIndex3
                      {
                        OFFSET 3.662364 0.0 0.0
                        CHANNELS 3 Zrotation Yrotation Xrotation
                        JOINT LeftHandIndex4
                        {
                          OFFSET 2.329242 4e-06 4e-06
                          CHANNELS 3 Zrotation Yrotation Xrotation
                          JOINT LeftHandIndex4_end
                          {
                            OFFSET 2.759615 -0.180537 -0.113024
                            CHANNELS 3 Zrotation Yrotation Xrotation
                          }
                        }
                      }
                    }
                  }
                  JOINT LeftHandMiddle1
                  {
                    OFFSET 3.163495 0.240981 1.000332
                    CHANNELS 3 Zrotation Yrotation Xrotation
                    JOINT LeftHandMiddle2
                    {
                      OFFSET 6.19078 -0.259278 -1.002548
                      CHANNELS 3 Zrotation Yrotation Xrotation
                      JOINT LeftHandMiddle3
                      {
                        OFFSET 4.35652 -4e-06 -1e-06
                        CHANNELS 3 Zrotation Yrotation Xrotation
                        JOINT LeftHandMiddle4
                        {
                          OFFSET 2.996877 -8e-06 0.0
                          CHANNELS 3 Zrotation Yrotation Xrotation
                          JOINT LeftHandMiddle4_end
                          {
                            OFFSET 2.304287 -0.294569 -0.031741
                            CHANNELS 3 Zrotation Yrotation Xrotation
                          }
                        }
                      }
                    }
                  }
                  JOINT LeftHandRing1
                  {
                    OFFSET 2.882643 -0.053652 -0.322543
                    CHANNELS 3 Zrotation Yrotation Xrotation
                    JOINT LeftHandRing2
                    {
                      OFFSET 5.854541 -0.486202 -1.373841
                      CHANNELS 3 Zrotation Yrotation Xrotation
                      JOINT LeftHandRing3
                      {
                        OFFSET 4.350578 0.0 3e-06
                        CHANNELS 3 Zrotation Yrotation Xrotation
                        JOINT LeftHandRing4
                        {
                          OFFSET 2.651321 7e-06 2e-06
                          CHANNELS 3 Zrotation Yrotation Xrotation
                          JOINT LeftHandRing4_end
                          {
                            OFFSET 1.936105 0.077687 -7.1e-05
                            CHANNELS 3 Zrotation Yrotation Xrotation
                          }
                        }
                      }
                    }
                  }
                  JOINT LeftHandPinky1
                  {
                    OFFSET 2.8655 -0.310005 -1.600378
                    CHANNELS 3 Zrotation Yrotation Xrotation
                    JOINT LeftHandPinky2
                    {
                      OFFSET 5.087849 -1.331141 -1.77123
                      CHANNELS 3 Zrotation Yrotation Xrotation
                      JOINT LeftHandPinky3
                      {
                        OFFSET 3.070974 4e-06 0.0
                        CHANNELS 3 Zrotation Yrotation Xrotation
                        JOINT LeftHandPinky4
                        {
                          OFFSET 1.549672 0.0 1e-06
                          CHANNELS 3 Zrotation Yrotation Xrotation
                          JOINT LeftHandPinky4_end
                          {
                            OFFSET 1.944893 -0.157802 0.057219
                            CHANNELS 3 Zrotation Yrotation Xrotation
                          }
                        }
                      }
                    }
                  }
                }
              }
            }
          }
          JOINT RightShoulder
          {
            OFFSET -1.380118 23.180309 5.214158
            CHANNELS 3 Zrotation Yrotation Xrotation
            JOINT RightArm
            {
              OFFSET -15.037196 1.2e-05 -5.545604
              CHANNELS 3 Zrotation Yrotation Xrotation
              JOINT RightForeArm
              {
                OFFSET -28.736639 2e-06 -0.002597
                CHANNELS 3 Zrotation Yrotation Xrotation
                JOINT RightHand
                {
                  OFFSET -27.133619 -0.0 0.002613
                  CHANNELS 3 Zrotation Yrotation Xrotation
                  JOINT RightHandThumb1
                  {
                    OFFSET -2.274032 -1.383988 3.163127
                    CHANNELS 3 Zrotation Yrotation Xrotation
                    JOINT RightHandThumb2
                    {
                      OFFSET -4.011429 -1.827466 1.640914
                      CHANNELS 3 Zrotation Yrotation Xrotation
                      JOINT RightHandThumb3
                      {
                        OFFSET -2.794935 -4e-06 -3e-06
                        CHANNELS 3 Zrotation Yrotation Xrotation
                        JOINT RightHandThumb4
                        {
                          OFFSET -3.183852 4e-06 1e-06
                          CHANNELS 3 Zrotation Yrotation Xrotation
                        }
                      }
                    }
                  }
                  JOINT RightHandIndex1
                  {
                    OFFSET -3.253266 -0.520057 2.282866
                    CHANNELS 3 Zrotation Yrotation Xrotation
                    JOINT RightHandIndex2
                    {
                      OFFSET -6.341917 0.012471 0.178266
                      CHANNELS 3 Zrotation Yrotation Xrotation
                      JOINT RightHandIndex3
                      {
                        OFFSET -3.654871 -8e-06 -0.0
                        CHANNELS 3 Zrotation Yrotation Xrotation
                        JOINT RightHandIndex4
                        {
                          OFFSET -2.327586 0.0 1e-06
                          CHANNELS 3 Zrotation Yrotation Xrotation
                          JOINT RightHandIndex4_end
                          {
                            OFFSET -2.76179 -0.180656 -0.113078
                            CHANNELS 3 Zrotation Yrotation Xrotation
                          }
                        }
                      }
                    }
                  }
                  JOINT RightHandMiddle1
                  {
                    OFFSET -3.168106 0.246593 1.00103
                    CHANNELS 3 Zrotation Yrotation Xrotation
                    JOINT RightHandMiddle2
                    {
                      OFFSET -6.180828 -0.258836 -1.000895
                      CHANNELS 3 Zrotation Yrotation Xrotation
                      JOINT RightHandMiddle3
                      {
                        OFFSET -4.348901 0.0 -0.0
                        CHANNELS 3 Zrotation Yrotation Xrotation
                        JOINT RightHandMiddle4
                        {
                          OFFSET -3.00024 -4e-06 -2e-06
                          CHANNELS 3 Zrotation Yrotation Xrotation
                          JOINT RightHandMiddle4_end
                          {
                            OFFSET -2.30252 -0.29437 -0.031706
                            CHANNELS 3 Zrotation Yrotation Xrotation
                          }
                        }
                      }
                    }
                  }
                  JOINT RightHandRing1
                  {
                    OFFSET -2.88569 -0.067952 -0.308858
                    CHANNELS 3 Zrotation Yrotation Xrotation
                    JOINT RightHandRing2
                    {
                      OFFSET -5.854198 -0.48613 -1.373731
                      CHANNELS 3 Zrotation Yrotation Xrotation
                      JOINT RightHandRing3
                      {
                        OFFSET -4.33881 -4e-06 -0.0
                        CHANNELS 3 Zrotation Yrotation Xrotation
                        JOINT RightHandRing4
                        {
                          OFFSET -2.654903 -4e-06 4e-06
                          CHANNELS 3 Zrotation Yrotation Xrotation
                          JOINT RightHandRing4_end
                          {
                            OFFSET -1.933568 0.077527 -5.2e-05
                            CHANNELS 3 Zrotation Yrotation Xrotation
                          }
                        }
                      }
                    }
                  }
                  JOINT RightHandPinky1
                  {
                    OFFSET -2.866425 -0.342796 -1.584145
                    CHANNELS 3 Zrotation Yrotation Xrotation
                    JOINT RightHandPinky2
                    {
                      OFFSET -5.091371 -1.332055 -1.772385
                      CHANNELS 3 Zrotation Yrotation Xrotation
                      JOINT RightHandPinky3
                      {
                        OFFSET -3.062664 -4e-06 1e-06
                        CHANNELS 3 Zrotation Yrotation Xrotation
                        JOINT RightHandPinky4
                        {
                          OFFSET -1.546529 4e-06 -2e-06
                          CHANNELS 3 Zrotation Yrotation Xrotation
                          JOINT RightHandPinky4_end
                          {
                            OFFSET -1.945119 -0.157718 0.057211
                            CHANNELS 3 Zrotation Yrotation Xrotation
                          }
                        }
                      }
                    }
                  }
                }
              }
            }
          }
        }
      }
    }
    JOINT LeftUpLeg
    {
      OFFSET 10.043214 -8.434526 2.595655
      CHANNELS 3 Zrotation Yrotation Xrotation
      JOINT LeftLeg
      {
        OFFSET -1e-06 -43.221752 -0.802913
        CHANNELS 3 Zrotation Yrotation Xrotation
        JOINT LeftFoot
        {
          OFFSET 1e-06 -42.155094 -3.481523
          CHANNELS 3 Zrotation Yrotation Xrotation
          JOINT LeftToeBase
          {
            OFFSET 0.0 -5.059472 13.231529
            CHANNELS 3 Zrotation Yrotation Xrotation
            JOINT LeftToe_End
            {
              OFFSET -0.009607 -1.647619 6.513017
              CHANNELS 3 Zrotation Yrotation Xrotation
            }
          }
        }
      }
    }
    JOINT RightUpLeg
    {
      OFFSET -10.047278 -8.29526 2.620317
      CHANNELS 3 Zrotation Yrotation Xrotation
      JOINT RightLeg
      {
        OFFSET 1e-06 -43.362206 -0.805556
        CHANNELS 3 Zrotation Yrotation Xrotation
        JOINT RightFoot
        {
          OFFSET 2e-06 -42.117393 -3.478398
          CHANNELS 3 Zrotation Yrotation Xrotation
          JOINT RightToeBase
          {
            OFFSET -0.0 -5.079609 13.284196
            CHANNELS 3 Zrotation Yrotation Xrotation
            JOINT RightToe_End
            {
              OFFSET 0.009532 -1.634378 6.460591
              CHANNELS 3 Zrotation Yrotation Xrotation
            }
          }
        }
      }
    }
  }
}
MOTION
Frames: 4
Frame Time: 0.03333333333333333
0.0 0.0 0.0 0.0 -0.0 0.0 5.967172 99.257896 1.58847 -0.168872 1.258281 5.858266 -3.058962 1.772318 -4.36432 -1.239352 5.835801 -6.97608 -7.388842 2.957961 10.000282 -19.466845 28.72543 34.475693 -5.825335 -14.296578 -1.597215 -15.264465 -14.738015 19.333471 7.6e-05 -2.2e-05 5e-06 0.084997 -0.214213 -0.278053 0.854929 -3.99547 -11.461326 -0.717495 3.568581 -11.786839 -12.391957 2.593231 9.707554 -54.210037 -20.863546 -25.629969 -178.686432 -46.508934 179.896149 -39.38921 -9.866029 -0.151809 -5.88211 9.861288 0.702591 -10.936878 -0.360573 7.15621 0.0 8.77483 1e-06 -16.369944 18.105539 5.66658 -1.844033 2.498504 -2.507279 -10.163604 4.678947 4.621113 -20.976038 -3e-06 5e-06 -21.226299 2.451699 -3.593996 1e-06 -5e-06 -1e-06 -1.362682 2.240797 -0.746323 -21.334925 0.58491 3.008325 -13.821221 -2e-06 3e-06 -23.887184 -0.249077 -0.839482 -60.369003 2.817856 -1.47703 -0.294025 1.679686 0.833256 -14.218218 0.093215 1.300584 -34.212067 -0.287561 0.967172 -20.033226 0.964537 1.212844 -0.0 0.0 -0.0 -3.440389 0.788232 0.501656 -15.928194 -3.167312 2.99971 -6.338828 -2e-06 2e-06 -18.123455 3.648183 -4.905669 -3e-06 1e-06 -2e-06 11.950891 16.621172 21.713015 45.728573 19.16641 20.781944 -176.969604 80.315399 -176.710587 22.804253 -16.736853 12.580553 2.243542 -5.255037 -3.180157 14.282887 -0.826599 6.952504 0.0 -12.690605 3e-06 16.215904 -18.936228 3.020645 1.665667 -1.955923 -2.878298 4.727798 -4.170588 4.993925 11.020524 2e-06 -1e-06 12.109052 -3.735718 -2.866784 -1e-06 1e-06 0.0 1.291986 -1.928549 -1.498089 14.800125 0.567464 3.865607 14.242569 -1.341738 -6.66066 19.631962 0.143925 -0.648247 49.993179 -1.014381 -7.25842 0.353029 -1.511151 -0.03194 20.222784 3.684307 2.316628 18.78727 1e-06 -1e-06 10.751626 -0.47987 1.397905 0.0 1e-06 0.0 3.273806 0.305947 -0.580111 21.486805 11.830371 2.266131 8.162924 -2e-06 -0.0 18.39908 -3.798988 -4.940576 2e-06 -0.0 -1e-06 2.929462 -13.814842 -17.017803 0.092234 -0.435018 20.639986 -3.280869 -12.163371 -9.415119 1.667746 -1.617498 -0.833066 0.0 0.0 2e-06 -13.219178 2.868914 -5.221367 -0.105619 0.724977 13.143273 14.515531 2.145494 -2.321129 -1.454826 1.143327 -4.023054 -0.0 -0.0 -1e-06 
0.0 0.0 0.0 0.0 -0.0 0.0 5.610487 99.294533 1.971907 -0.331879 2.334893 5.825712 -2.908397 1.849433 -4.238064 -1.164488 5.976479 -6.878365 -7.444226 3.180723 10.052955 -20.320179 29.356079 33.87146 -5.548218 -14.601102 -1.663341 -15.40652 -15.032676 18.671587 7.7e-05 -2.2e-05 6e-06 0.061642 -0.212816 -0.278178 0.765982 -3.984094 -11.467593 -0.67494 3.559835 -11.757612 -12.810959 3.266179 9.388841 -54.160057 -20.539738 -25.18795 -179.707687 -45.652866 -179.595291 -39.748863 -9.824843 -0.79865 -5.882112 9.861291 0.70259 -10.936879 -0.360571 7.156214 -2e-06 8.774828 -1e-06 -16.165216 18.064795 5.785122 -1.844033 2.498507 -2.50728 -10.16361 4.678948 4.621114 -20.976038 -1e-06 5e-06 -21.226301 2.4517 -3.594002 1e-06 -7e-06 -1e-06 -1.362683 2.240802 -0.746325 -21.33493 0.584912 3.008329 -13.821222 -0.0 2e-06 -23.887188 -0.249076 -0.839482 -60.389698 2.669792 -1.423304 -0.294026 1.679688 0.833257 -14.218219 0.093215 1.300583 -34.212074 -0.28756 0.967172 -20.033226 0.964541 1.212844 -0.0 0.0 -2e-06 -3.440392 0.788234 0.501657 -15.9282 -3.16731 2.999712 -6.33883 -1e-06 3e-06 -18.123459 3.648186 -4.905674 -3e-06 1e-06 -1e-06 11.966236 17.066193 21.771906 45.57156 19.836086 19.790806 -175.330109 80.84346 -175.227142 23.362146 -16.887415 11.690763 2.243543 -5.255044 -3.18016 14.282902 -0.826599 6.952511 0.0 -12.690619 1e-06 16.395315 -18.861891 2.830445 1.665668 -1.955923 -2.878301 4.727803 -4.170592 4.99393 11.020535 1e-06 -2e-06 12.109062 -3.735721 -2.866789 -1e-06 1e-06 -1e-06 1.291987 -1.928552 -1.498089 14.800139 0.567467 3.865611 14.242585 -1.34174 -6.660665 19.631985 0.143924 -0.648247 49.860008 -1.028161 -7.186698 0.353029 -1.511152 -0.031939 20.222807 3.684309 2.316634 18.787289 1e-06 1e-06 10.751636 -0.479871 1.397907 0.0 -0.0 -1e-06 3.273809 0.305946 -0.580111 21.48683 11.830383 2.266137 8.162932 -2e-06 1e-06 18.399099 -3.798995 -4.940582 3e-06 -0.0 -1e-06 3.374779 -14.207049 -16.815542 0.068469 -0.498606 20.45653 -3.168616 -12.610133 -9.527043 1.677014 -1.621088 -0.924822 0.0 0.0 2e-06 -12.675917 2.295777 -5.7438 -0.076361 0.772856 15.593255 14.809625 2.317629 -2.157997 -1.464592 1.129381 -4.240603 -0.0 0.0 -1e-06 
0.0 0.0 0.0 0.0 -0.0 0.0 5.131833 99.146919 2.335279 -0.366214 3.600877 5.69315 -2.768035 1.90034 -4.005691 -1.094235 6.170607 -6.72774 -7.320908 3.550048 10.27498 -21.199387 30.223461 33.033131 -5.505277 -15.081478 -1.692179 -15.757964 -15.112916 17.772324 7.6e-05 -2.2e-05 7e-06 0.054179 -0.198759 -0.285247 0.704205 -3.951388 -11.42651 -0.631237 3.554122 -11.684828 -13.113712 4.035975 9.086703 -54.249374 -20.471077 -25.519037 179.855194 -45.083588 -179.311508 -40.023323 -9.521507 -1.300357 -5.882107 9.861287 0.702588 -10.936873 -0.360575 7.156204 -2e-06 8.774825 -3e-06 -16.226412 18.056187 5.953444 -1.844033 2.498505 -2.507278 -10.163603 4.678945 4.621109 -20.976027 -4e-06 2e-06 -21.226288 2.451697 -3.594001 0.0 -6e-06 -2e-06 -1.362682 2.2408 -0.746324 -21.334919 0.584909 3.008324 -13.821217 -2e-06 1e-06 -23.887175 -0.249077 -0.839483 -60.628395 2.633729 -1.300547 -0.294025 1.679686 0.833255 -14.218209 0.093215 1.300582 -34.212051 -0.287562 0.967171 -20.033218 0.964536 1.212843 -0.0 1e-06 -2e-06 -3.44039 0.788235 0.501656 -15.928191 -3.167308 2.999707 -6.338827 -3e-06 2e-06 -18.123449 3.648183 -4.905673 -4e-06 -0.0 -1e-06 11.925871 17.710392 21.93852 45.285988 20.501509 18.758886 -172.801315 80.924957 -172.896713 23.526497 -17.174862 10.806625 2.243544 -5.255037 -3.180158 14.28289 -0.826597 6.9525 -3e-06 -12.690607 3e-06 16.538086 -18.774818 2.78263 1.665667 -1.955921 -2.878299 4.727799 -4.170591 4.993924 11.020528 2e-06 -5e-06 12.109055 -3.735717 -2.866786 -1e-06 1e-06 -1e-06 1.291987 -1.92855 -1.498089 14.800129 0.567467 3.865604 14.242576 -1.341736 -6.660663 19.631969 0.143931 -0.648249 49.974945 -1.150425 -7.118426 0.353029 -1.511151 -0.031938 20.222792 3.684311 2.316627 18.787273 4e-06 -5e-06 10.751627 -0.479866 1.397903 0.0 0.0 1e-06 3.273808 0.305945 -0.580112 21.486813 11.830379 2.266126 8.162926 -0.0 -4e-06 18.39908 -3.798984 -4.94058 2e-06 -0.0 -1e-06 3.76783 -14.626102 -17.039789 0.046855 -0.505004 21.246044 -3.019596 -13.264163 -10.189566 1.682634 -1.58718 -0.832428 0.0 0.0 2e-06 -12.388617 1.41909 -6.435571 -0.026876 0.967438 18.76417 15.924843 3.3717 -2.102724 -1.45902 1.082464 -4.437719 0.0 0.0 -1e-06 
0.0 0.0 0.0 0.0 -0.0 0.0 4.525344 98.949905 2.807665 -0.32757 4.875402 5.534605 -2.590477 1.976657 -3.706564 -1.056925 6.388405 -6.592424 -7.076964 3.967105 10.48516 -22.070568 30.967436 32.157696 -5.501401 -15.216187 -1.714313 -16.041317 -15.135281 16.414518 7.6e-05 -2.2e-05 6e-06 0.033823 -0.182211 -0.27965 0.653884 -3.918244 -11.327434 -0.62656 3.554038 -11.549194 -13.340199 4.985722 8.985343 -54.216503 -20.974691 -25.951061 179.345688 -44.88372 -179.083542 -40.340378 -9.089209 -1.816782 -5.882112 9.861292 0.70259 -10.936881 -0.360576 7.156213 0.0 8.774831 -2e-06 -16.099224 17.981926 6.03065 -1.844034 2.498508 -2.50728 -10.16361 4.67895 4.621111 -20.976042 -0.0 2e-06 -21.226305 2.451698 -3.594004 -0.0 -8e-06 -1e-06 -1.362683 2.240798 -0.746326 -21.334934 0.58491 3.008326 -13.821225 -1e-06 3e-06 -23.887192 -0.249078 -0.839484 -60.621613 2.65307 -1.267846 -0.294024 1.67969 0.833257 -14.21822 0.093215 1.300583 -34.212082 -0.287563 0.967174 -20.033232 0.964537 1.212845 -0.0 0.0 -0.0 -3.440391 0.788234 0.501657 -15.928201 -3.167311 2.999709 -6.33883 -0.0 1e-06 -18.123463 3.648185 -4.905674 -4e-06 -1e-06 -1e-06 11.757502 18.411541 22.146797 45.188831 21.20606 17.699581 -171.101883 80.863846 -171.317169 23.382011 -17.227728 10.449378 2.243542 -5.255039 -3.180158 14.282905 -0.826598 6.952509 -3e-06 -12.690612 3e-06 16.556791 -18.644602 2.776936 1.665668 -1.955924 -2.878301 4.727803 -4.170589 4.993929 11.020536 2e-06 -2e-06 12.109063 -3.73572 -2.866788 -0.0 1e-06 1e-06 1.291986 -1.92855 -1.498092 14.80014 0.567466 3.865611 14.242583 -1.341736 -6.660663 19.631985 0.143926 -0.648247 49.992592 -1.234501 -7.089702 0.35303 -1.511151 -0.03194 20.222811 3.684311 2.316631 18.787289 4e-06 -1e-06 10.751639 -0.479867 1.397907 0.0 0.0 -1e-06 3.27381 0.305946 -0.580111 21.486832 11.830383 2.266132 8.162932 -1e-06 -2e-06 18.399099 -3.798985 -4.940576 2e-06 -0.0 -2e-06 4.15055 -15.223121 -17.22761 0.054852 -0.519999 22.144281 -2.940271 -13.724904 -10.842392 1.688768 -1.581807 -0.745982 0.0 0.0 2e-06 -12.266426 0.787264 -7.32897 0.036944 1.042402 22.702137 17.48377 4.558493 -2.305477 -1.458197 1.111656 -4.840725 -0.0 -0.0 -1e-06 
